<?xml version="1.0" encoding="UTF-8" standalone="no"?>
<svg width="244px" height="58px" viewBox="0 0 244 58" version="1.1" xmlns="http://www.w3.org/2000/svg" xmlns:xlink="http://www.w3.org/1999/xlink">
    <!-- Generator: Sketch 48.2 (47327) - http://www.bohemiancoding.com/sketch -->
    <title>amoslogo</title>
    <desc>Created with Sketch.</desc>
    <defs></defs>
    <g id="Page-1" stroke="none" stroke-width="1" fill="none" fill-rule="evenodd">
        <g id="amoslogo">
            <path d="M30.185,20 L30.185,39.275 C30.185,41.3322607 28.5172607,43 26.46,43 L25.835,43 C24.1229173,43 22.735,41.6120827 22.735,39.9 C20.801657,42.233345 18.001685,43.4 14.335,43.4 C11.801654,43.4 9.51001023,42.833339 7.45999998,41.7 C5.40998973,40.566661 3.80167248,38.9500105 2.63499998,36.85 C1.46832748,34.7499895 0.884999979,32.3166805 0.884999979,29.55 C0.884999979,26.7833195 1.46832748,24.3500105 2.63499998,22.25 C3.80167248,20.1499895 5.40998973,18.533339 7.45999998,17.4 C9.51001023,16.266661 11.801654,15.7 14.335,15.7 C17.7683505,15.7 20.451657,16.7833225 22.385,18.95 L22.385,18.95 C22.385,17.3759885 23.6609884,16.1 25.235,16.1 L26.285,16.1 C28.4389105,16.1 30.185,17.8460895 30.185,20 Z M15.685,37 C17.6516765,37 19.2849935,36.3250068 20.585,34.975 C21.8850065,33.6249933 22.535,31.816678 22.535,29.55 C22.535,27.283322 21.8850065,25.4750068 20.585,24.125 C19.2849935,22.7749932 17.6516765,22.1 15.685,22.1 C13.68499,22.1 12.0350065,22.7749932 10.735,24.125 C9.43499348,25.4750068 8.78499998,27.283322 8.78499998,29.55 C8.78499998,31.816678 9.43499348,33.6249933 10.735,34.975 C12.0350065,36.3250068 13.68499,37 15.685,37 Z M68.955,15.7 C72.3216835,15.7 74.9966567,16.6916568 76.98,18.675 C78.9633432,20.6583433 79.955,23.6333135 79.955,27.6 L79.955,39.1 C79.955,41.2539105 78.2089105,43 76.055,43 L76.055,43 C73.9010895,43 72.155,41.2539105 72.155,39.1 L72.155,28.8 C72.155,26.666656 71.7133377,25.0750053 70.83,24.025 C69.9466622,22.9749948 68.6883415,22.45 67.055,22.45 C65.2216575,22.45 63.771672,23.0416608 62.705,24.225 C61.638328,25.4083393 61.105,27.166655 61.105,29.5 L61.105,39.1 C61.105,41.2539105 59.3589105,43 57.205,43 L57.205,43 C55.0510895,43 53.305,41.2539105 53.305,39.1 L53.305,28.8 C53.305,24.5666455 51.605017,22.45 48.205,22.45 C46.404991,22.45 44.971672,23.0416608 43.905,24.225 C42.838328,25.4083393 42.305,27.166655 42.305,29.5 L42.305,39.1 C42.305,41.2539105 40.5589105,43 38.405,43 L38.405,43 C36.2510895,43 34.505,41.2539105 34.505,39.1 L34.505,19.825 C34.505,17.7677393 36.1727393,16.1 38.23,16.1 L38.855,16.1 C40.5670827,16.1 41.955,17.4879173 41.955,19.2 C42.955005,18.066661 44.1799927,17.200003 45.63,16.6 C47.0800072,15.999997 48.671658,15.7 50.405,15.7 C52.3050095,15.7 54.021659,16.0749963 55.555,16.825 C57.088341,17.5750038 58.321662,18.6666595 59.255,20.1 C60.3550055,18.699993 61.7466582,17.6166705 63.43,16.85 C65.1133417,16.0833295 66.95499,15.7 68.955,15.7 Z M98.175,43.4 C95.3416525,43.4 92.8000112,42.8083393 90.55,41.625 C88.2999887,40.4416608 86.541673,38.8000105 85.275,36.7 C84.008327,34.5999895 83.375,32.21668 83.375,29.55 C83.375,26.88332 84.008327,24.5000105 85.275,22.4 C86.541673,20.2999895 88.2999887,18.6583393 90.55,17.475 C92.8000112,16.2916608 95.3416525,15.7 98.175,15.7 C101.008347,15.7 103.541655,16.2916608 105.775,17.475 C108.008344,18.6583393 109.758327,20.2999895 111.025,22.4 C112.291673,24.5000105 112.925,26.88332 112.925,29.55 C112.925,32.21668 112.291673,34.5999895 111.025,36.7 C109.758327,38.8000105 108.008344,40.4416608 105.775,41.625 C103.541655,42.8083393 101.008347,43.4 98.175,43.4 Z M98.175,37 C100.17501,37 101.81666,36.3250068 103.1,34.975 C104.38334,33.6249933 105.025,31.816678 105.025,29.55 C105.025,27.283322 104.38334,25.4750068 103.1,24.125 C101.81666,22.7749933 100.17501,22.1 98.175,22.1 C96.17499,22.1 94.5250065,22.7749933 93.225,24.125 C91.9249935,25.4750068 91.275,27.283322 91.275,29.55 C91.275,31.816678 91.9249935,33.6249933 93.225,34.975 C94.5250065,36.3250068 96.17499,37 98.175,37 Z M125.295,43.4 C123.061655,43.4 120.878344,43.1250028 118.745,42.575 C118.089926,42.4061139 117.375924,42.1682797 116.602993,41.8614975 L116.60301,41.8614548 C115.021317,41.2336691 114.248023,39.442533 114.875809,37.8608404 C114.897344,37.8065823 114.920417,37.7529472 114.945,37.7 L114.945,37.7 C115.636684,36.2102187 117.381817,35.5330717 118.897319,36.16642 C119.525695,36.4290069 120.091586,36.6318726 120.595,36.775 C122.295008,37.2583358 123.961658,37.5 125.595,37.5 C128.895016,37.5 130.545,36.6833415 130.545,35.05 C130.545,34.2833295 130.095004,33.733335 129.195,33.4 C128.294995,33.066665 126.911676,32.7833345 125.045,32.55 C122.844989,32.216665 121.02834,31.8333355 119.595,31.4 C118.161659,30.9666645 116.920005,30.2000055 115.87,29.1 C114.819995,27.9999945 114.295,26.4333435 114.295,24.4 C114.295,22.6999915 114.786662,21.1916733 115.77,19.875 C116.753338,18.5583268 118.186657,17.533337 120.07,16.8 C121.953343,16.066663 124.17832,15.7 126.745,15.7 C128.645009,15.7 130.536657,15.9083313 132.42,16.325 C132.929422,16.437704 133.488686,16.5993362 134.097792,16.8098965 L134.09778,16.8099305 C135.628271,17.3390018 136.440081,19.0086063 135.91101,20.5390965 C135.877384,20.6363677 135.838661,20.7318009 135.795,20.825 L135.795,20.825 C135.07938,22.3525726 133.337541,23.1073495 131.7336,22.5848935 C129.717808,21.9283036 128.054943,21.6 126.745,21.6 C125.078325,21.6 123.828337,21.833331 122.995,22.3 C122.161662,22.766669 121.745,23.366663 121.745,24.1 C121.745,24.9333375 122.194995,25.516665 123.095,25.85 C123.995004,26.183335 125.428323,26.4999985 127.395,26.8 C129.595011,27.1666685 131.394993,27.5583313 132.795,27.975 C134.195007,28.3916688 135.411661,29.1499945 136.445,30.25 C137.478338,31.3500055 137.995,32.8833235 137.995,34.85 C137.995,36.516675 137.495005,37.9999935 136.495,39.3 C135.494995,40.6000065 134.036676,41.6083298 132.12,42.325 C130.203324,43.0416703 127.928346,43.4 125.295,43.4 Z M167.935,37.15 C169.335007,37.15 170.576661,36.9416688 171.66,36.525 C171.891524,36.4359522 172.15245,36.3077966 172.442779,36.1405332 L172.442775,36.1405275 C173.859151,35.3245273 175.651826,35.5983652 176.76,36.8 L176.76,36.8 C177.838333,37.9692769 177.764609,39.7913248 176.595332,40.8696579 C176.460051,40.9944169 176.313124,41.1059226 176.156566,41.2026456 C173.785422,42.6675436 170.978236,43.4 167.735,43.4 C164.701652,43.4 162.018345,42.8083393 159.685,41.625 C157.351655,40.4416608 155.551673,38.8000105 154.285,36.7 C153.018327,34.5999895 152.385,32.21668 152.385,29.55 C152.385,26.9166535 153.009994,24.5416773 154.26,22.425 C155.510006,20.3083228 157.226656,18.6583393 159.41,17.475 C161.593344,16.2916608 164.051653,15.7 166.785,15.7 C169.35168,15.7 171.68499,16.2416613 173.785,17.325 C175.885011,18.4083388 177.559994,19.9749898 178.81,22.025 C180.060006,24.0750103 180.685,26.499986 180.685,29.3 L160.785,33.15 C161.35167,34.48334 162.243327,35.48333 163.46,36.15 C164.676673,36.81667 166.168325,37.15 167.935,37.15 Z M166.785,21.6 C164.818324,21.6 163.21834,22.233327 161.985,23.5 C160.751661,24.766673 160.101667,26.5166555 160.035,28.75 L173.135,26.2 C172.768332,24.799993 172.018339,23.6833375 170.885,22.85 C169.751661,22.0166625 168.385008,21.6 166.785,21.6 Z M191.505,19.65 C192.438338,18.3499935 193.696659,17.36667 195.28,16.7 C196.863341,16.03333 198.688323,15.7 200.755,15.7 L200.755,22.9 C199.888329,22.833333 199.305002,22.8 199.005,22.8 C196.771656,22.8 195.021673,23.4249938 193.755,24.675 C192.488327,25.9250063 191.855,27.7999875 191.855,30.3 L191.855,39.1 C191.855,41.2539105 190.108911,43 187.955,43 L187.955,43 C185.801089,43 184.055,41.2539105 184.055,39.1 L184.055,19.825 C184.055,17.7677393 185.722739,16.1 187.78,16.1 L187.955,16.1 C189.915611,16.1 191.505,17.6893891 191.505,19.65 Z M219.425,15.7 C221.925013,15.7 224.19999,16.2749942 226.25,17.425 C228.30001,18.5750057 229.908328,20.1916562 231.075,22.275 C232.241673,24.3583437 232.825,26.7833195 232.825,29.55 C232.825,32.3166805 232.241673,34.7416562 231.075,36.825 C229.908328,38.9083437 228.30001,40.5249942 226.25,41.675 C224.19999,42.8250057 221.925013,43.4 219.425,43.4 C215.724982,43.4 212.908343,42.233345 210.975,39.9 L210.975,39.9 C210.975,41.6120827 209.587083,43 207.875,43 L207.25,43 C205.192739,43 203.525,41.3322607 203.525,39.275 L203.525,9.8 C203.525,7.64608948 205.271089,5.9 207.425,5.9 L207.425,5.9 C209.578911,5.9 211.325,7.64608948 211.325,9.8 L211.325,18.95 C213.291677,16.7833225 215.99165,15.7 219.425,15.7 Z M218.075,37 C220.07501,37 221.71666,36.3250068 223,34.975 C224.28334,33.6249933 224.925,31.816678 224.925,29.55 C224.925,27.283322 224.28334,25.4750068 223,24.125 C221.71666,22.7749933 220.07501,22.1 218.075,22.1 C216.07499,22.1 214.43334,22.7749933 213.15,24.125 C211.86666,25.4750068 211.225,27.283322 211.225,29.55 C211.225,31.816678 211.86666,33.6249933 213.15,34.975 C214.43334,36.3250068 216.07499,37 218.075,37 Z M240.045,16.1 L240.045,16.1 C242.198911,16.1 243.945,17.8460895 243.945,20 L243.945,39.1 C243.945,41.2539105 242.198911,43 240.045,43 L240.045,43 C237.891089,43 236.145,41.2539105 236.145,39.1 L236.145,20 C236.145,17.8460895 237.891089,16.1 240.045,16.1 Z" id="amosjerbi" fill="#171B24"></path>
            <path d="M141.05896,20 C141.05896,17.790861 142.849821,16 145.05896,16 C147.268099,16 149.05896,17.790861 149.05896,20 L149.05869,34.482961 L149.171935,44.2427526 C149.246605,50.6780156 144.090326,55.9553589 137.655063,56.0300288 C136.361402,56.0450394 135.074272,55.8445143 133.846487,55.4366813 C131.749983,54.7402861 130.61497,52.4761941 131.311366,50.3796901 C132.007761,48.2831861 134.271853,47.1481736 136.368357,47.8445687 C136.753234,47.9724134 137.156715,48.0352727 137.562243,48.0305673 C139.579526,48.0071603 141.195881,46.3528547 141.172474,44.3355723 L141.05896,34.5293708 L141.05896,20 Z" id="Path-2-Copy" fill="#171B24" fill-rule="nonzero"></path>
            <circle id="Oval" fill="#171B24" cx="240" cy="10" r="4"></circle>
            <path d="M143.688102,13.6945299 C141.494497,13.4330127 139.92823,11.4427428 140.189747,9.24913758 C140.451265,7.05553235 142.441535,5.48926549 144.63514,5.75078263 C148.450459,6.20563717 150.635163,5.32555877 151.96351,3.13034394 C153.107197,1.24029741 155.566524,0.635253216 157.45657,1.77893991 C159.346617,2.9226266 159.951661,5.38195329 158.807974,7.27199981 C155.726816,12.3638944 150.428773,14.4981389 143.688102,13.6945299 Z" id="Path-3" fill="#6853E0" fill-rule="nonzero"></path>
        </g>
    </g>
</svg>