<svg width="65" height="65" xmlns="http://www.w3.org/2000/svg"><path d="M24.607.743H5.85A5.107 5.107 0 0 0 .743 5.85v18.757a5.107 5.107 0 0 0 5.107 5.107h18.757a5.014 5.014 0 0 0 5.107-5.107V5.85A5.107 5.107 0 0 0 24.607.743zm-1.393 22.471H7.243V7.243h15.971v15.971zM59.15.743H40.393a5.107 5.107 0 0 0-5.107 5.107v18.757a5.014 5.014 0 0 0 5.107 5.107H59.15a5.107 5.107 0 0 0 5.107-5.107V5.85A5.107 5.107 0 0 0 59.15.743zm-1.393 22.471H41.786V7.243h15.971v15.971zm-33.15 12.072H5.85a5.107 5.107 0 0 0-5.107 5.107V59.15a5.107 5.107 0 0 0 5.107 5.107h18.757a5.107 5.107 0 0 0 5.107-5.107V40.393a5.014 5.014 0 0 0-5.107-5.107zm-1.393 22.471H7.243V41.786h15.971v15.971zM59.15 35.286H40.393a5.014 5.014 0 0 0-5.107 5.107V59.15a5.107 5.107 0 0 0 5.107 5.107H59.15a5.107 5.107 0 0 0 5.107-5.107V40.393a5.107 5.107 0 0 0-5.107-5.107zm-1.393 22.471H41.786V41.786h15.971v15.971z"/></svg>