<svg width="800" height="480" xmlns="http://www.w3.org/2000/svg"><g fill="none" fill-rule="evenodd"><circle fill="#141717" cx="351.5" cy="239.5" r="181.5"/><circle fill="#FF63AC" cx="256" cy="99" r="71"/><g fill="#EBEBEB"><g transform="translate(695 245)"><circle cx="65" cy="105" r="5"/><circle cx="45" cy="105" r="5"/><circle cx="25" cy="105" r="5"/><circle cx="5" cy="105" r="5"/><circle cx="65" cy="85" r="5"/><circle cx="45" cy="85" r="5"/><circle cx="25" cy="85" r="5"/><circle cx="5" cy="85" r="5"/><circle cx="65" cy="65" r="5"/><circle cx="45" cy="65" r="5"/><circle cx="25" cy="65" r="5"/><circle cx="5" cy="65" r="5"/><circle cx="65" cy="45" r="5"/><circle cx="45" cy="45" r="5"/><circle cx="25" cy="45" r="5"/><circle cx="5" cy="45" r="5"/><circle cx="65" cy="25" r="5"/><circle cx="45" cy="25" r="5"/><circle cx="25" cy="25" r="5"/><circle cx="5" cy="25" r="5"/><circle cx="65" cy="5" r="5"/><circle cx="45" cy="5" r="5"/><circle cx="25" cy="5" r="5"/><circle cx="5" cy="5" r="5"/></g><g transform="translate(695 125)"><circle cx="65" cy="105" r="5"/><circle cx="45" cy="105" r="5"/><circle cx="25" cy="105" r="5"/><circle cx="5" cy="105" r="5"/><circle cx="65" cy="85" r="5"/><circle cx="45" cy="85" r="5"/><circle cx="25" cy="85" r="5"/><circle cx="5" cy="85" r="5"/><circle cx="65" cy="65" r="5"/><circle cx="45" cy="65" r="5"/><circle cx="25" cy="65" r="5"/><circle cx="5" cy="65" r="5"/><circle cx="65" cy="45" r="5"/><circle cx="45" cy="45" r="5"/><circle cx="25" cy="45" r="5"/><circle cx="5" cy="45" r="5"/><circle cx="65" cy="25" r="5"/><circle cx="45" cy="25" r="5"/><circle cx="25" cy="25" r="5"/><circle cx="5" cy="25" r="5"/><circle cx="65" cy="5" r="5"/><circle cx="45" cy="5" r="5"/><circle cx="25" cy="5" r="5"/><circle cx="5" cy="5" r="5"/></g></g></g></svg>