<svg width="65" height="65" xmlns="http://www.w3.org/2000/svg"><path d="M53.182 47.273c-3.993 0-7.515-2.002-9.655-5.042-2.709 3.066-6.624 5.042-11.027 5.042-8.145 0-14.773-6.628-14.773-14.773S24.355 17.727 32.5 17.727c3.338 0 6.387 1.155 8.864 3.03 0-1.708 1.321-3.03 2.954-3.03a2.953 2.953 0 0 1 2.955 2.955v14.773a5.917 5.917 0 0 0 5.909 5.909 5.917 5.917 0 0 0 5.909-5.91C59.09 15.682 46.006 5.91 32.5 5.91 17.837 5.91 5.91 17.837 5.91 32.5S17.836 59.09 32.5 59.09c5.91 0 11.498-1.892 16.164-5.475 3.116-2.38 6.685 2.317 3.6 4.685C46.554 62.683 39.722 65 32.5 65 14.58 65 0 50.42 0 32.5S14.58 0 32.5 0C48.828 0 65 12.042 65 35.455c0 6.517-5.3 11.818-11.818 11.818zM32.5 23.636c-4.888 0-8.864 3.976-8.864 8.864 0 4.888 3.976 8.864 8.864 8.864 4.888 0 8.864-3.976 8.864-8.864 0-4.888-3.976-8.864-8.864-8.864z" fill="#000" fill-rule="nonzero"/></svg>