<svg width="77" height="73" xmlns="http://www.w3.org/2000/svg"><g fill-rule="evenodd"><ellipse cx="27.07" cy="36.5" rx="4.211" ry="4.189"/><ellipse cx="40.305" cy="36.5" rx="4.211" ry="4.189"/><ellipse cx="53.539" cy="36.5" rx="4.211" ry="4.189"/><path d="M39.142 72.485H5.454c-2.045 0-3.85-1.077-4.812-2.872-.963-1.795-.843-3.95.36-5.505l6.979-10.052c-3.73-6.582-5.294-14.002-4.452-21.661C5.334 15.4 19.05 1.879 36.134.203 46.6-.874 56.587 2.357 64.287 9.298c7.58 6.822 12.031 16.635 12.031 26.807 0 9.574-3.73 18.549-10.587 25.49-6.978 6.94-16.724 10.89-26.59 10.89zm-2.396-65.02C23.17 8.783 12.245 19.651 10.81 33.153c-.662 6.477.773 12.844 4.194 18.333l.773 1.207L7.72 64.33c-.11.22-.11.439 0 .549.11.11.22.329.441.329h30.902c7.947 0 15.672-3.184 21.3-8.782 5.519-5.489 8.499-12.625 8.389-20.2 0-8.123-3.532-15.917-9.602-21.296-6.18-5.708-14.127-8.343-22.404-7.465z" fill-rule="nonzero"/></g></svg>