<?xml version="1.0" encoding="UTF-8"?>
<svg width="90px" height="90px" viewBox="0 0 90 90" version="1.1" xmlns="http://www.w3.org/2000/svg" xmlns:xlink="http://www.w3.org/1999/xlink">
    <title>study_2</title>
    <g id="study_2" stroke="none" stroke-width="1" fill="none" fill-rule="evenodd">
        <g id="Group" transform="translate(15.750000, 21.375000)" fill-rule="nonzero">
            <path d="M56.6447198,6.32456125 C55.9780897,3.8337909 54.0205221,1.87641165 51.529772,1.2096662 C47.0198944,0 28.9271261,0 28.9271261,0 C28.9271261,0 10.8346009,0 6.324541,1.2096662 C3.8337909,1.87641165 1.87641165,3.8337909 1.2096662,6.32456125 C-8.99280686e-14,10.8346009 -8.99280686e-14,20.2500008 -8.99280686e-14,20.2500008 C-8.99280686e-14,20.2500008 -8.99280686e-14,29.6654412 1.2096662,34.1755214 C1.87641165,36.6662715 3.8337909,38.6236365 6.324541,39.2902666 C10.8346009,40.5 28.9271261,40.5 28.9271261,40.5 C28.9271261,40.5 47.0198944,40.5 51.529772,39.2902666 C54.0205221,38.6236365 55.9780897,36.6662715 56.6447198,34.1755214 C57.8544548,29.6654412 57.8544548,20.2500008 57.8544548,20.2500008 C57.8544548,20.2500008 57.8495948,10.8346009 56.6447198,6.32456125 Z" id="Path" fill="#0250D3"></path>
            <polygon id="Path" fill="#FFFFFF" points="23.1362334 28.9279361 38.166594 20.2508108 23.1362334 11.5735437"></polygon>
        </g>
        <circle id="Oval" fill="#00F2D3" cx="27" cy="13.5" r="2.25"></circle>
        <path d="M11.25,15.9033901 L9.68881084,16.5212305 C9.11108658,16.7498648 8.4574038,16.4668715 8.22876948,15.8891473 C8.12351922,15.6231958 8.12351922,15.3271406 8.22876948,15.0611892 L8.84660993,13.5 L8.84660993,13.5 L8.22876948,11.9388108 C8.00013517,11.3610866 8.28312848,10.7074038 8.86085274,10.4787695 C9.12680419,10.3735192 9.42285939,10.3735192 9.68881084,10.4787695 L11.25,11.0966099 L11.25,11.0966099 L12.8111892,10.4787695 C13.3889134,10.2501352 14.0425962,10.5331285 14.2712305,11.1108527 C14.3764808,11.3768042 14.3764808,11.6728594 14.2712305,11.9388108 L13.6533901,13.5 L13.6533901,13.5 L14.2712305,15.0611892 C14.4998648,15.6389134 14.2168715,16.2925962 13.6391473,16.5212305 C13.3731958,16.6264808 13.0771406,16.6264808 12.8111892,16.5212305 L11.25,15.9033901 L11.25,15.9033901 Z" id="Star" fill="#00F2D3" transform="translate(11.250000, 13.500000) rotate(-331.000000) translate(-11.250000, -13.500000) "></path>
        <path d="M12.8618386,28.3339093 L12.8409803,28.3902136 L12.3096835,29.708066 L13.9743752,30.264471 C14.462151,30.4274739 14.7346783,30.9847869 14.583082,31.5092644 C14.4371003,32.0143168 13.9510627,32.3047513 13.4796991,32.1800182 L13.4253963,32.1637721 L11.5697203,31.5436093 L10.9218465,33.1507929 C10.7187014,33.6547123 10.1740987,33.8861468 9.7054424,33.6677164 C9.25414375,33.457376 9.0378381,32.9065784 9.20383368,32.4160907 L9.224692,32.3597864 L9.79303872,30.9496559 L8.52562482,30.5263869 C8.03784902,30.363384 7.7653217,29.806071 7.91691803,29.2815935 C8.06289967,28.7765411 8.54893731,28.4861066 9.02030087,28.6108397 L9.07460366,28.6270858 L10.5330019,29.1141125 L11.1438258,27.5992071 C11.3469709,27.0952877 11.8915736,26.8638532 12.3602299,27.0822836 C12.7941709,27.284534 13.0108477,27.8015562 12.8793037,28.2770697 L12.8618386,28.3339093 Z" id="Path" fill="#1BEAD3" fill-rule="nonzero"></path>
        <polygon id="Path" stroke="#0250D3" stroke-width="2.25" fill="#FFFFFF" points="76.55625 74.25 66.9375 64.63125 64.125 73.125 57.375 50.625 79.875 57.375 71.38125 60.1875 81 69.80625"></polygon>
    </g>
</svg>