<svg width="100" height="109" xmlns="http://www.w3.org/2000/svg" xmlns:xlink="http://www.w3.org/1999/xlink"><defs><path d="M55.402 10.126l30.435 17.432a10.87 10.87 0 0 1 5.467 9.432v34.715a10.87 10.87 0 0 1-5.467 9.432L55.402 98.57a10.87 10.87 0 0 1-10.804 0L14.163 81.137a10.87 10.87 0 0 1-5.467-9.432V36.99a10.87 10.87 0 0 1 5.467-9.432l30.435-17.432a10.87 10.87 0 0 1 10.804 0z" id="a"/></defs><g fill="none" fill-rule="evenodd"><use fill="#FFF" xlink:href="#a"/><path stroke="#550BEB" d="M55.154 10.56a10.37 10.37 0 0 0-10.308 0L14.411 27.992a10.37 10.37 0 0 0-5.215 8.998v34.715c0 3.718 1.99 7.15 5.215 8.998l30.435 17.432a10.37 10.37 0 0 0 10.308 0l30.435-17.432a10.37 10.37 0 0 0 5.215-8.998V36.99c0-3.717-1.99-7.15-5.215-8.998L55.154 10.56z"/><g fill="#550BEB" fill-rule="nonzero"><path d="M68 44.1c1 .5 1.7 1.5 1.7 2.8 0 1.3-.6 2.3-1.6 2.9l-1.2.6v11.85a1.05 1.05 0 1 1-2.1 0V51.5l-13.1 6.8c-.4.3-.9.4-1.4.4-.5 0-1-.1-1.4-.3L33.1 51c-.1-.1-.3-.1-.4-.2l-.1-.1c-1-.6-1.6-1.6-1.6-2.9 0-1.3.6-2.3 1.6-2.9l16.3-8.5c.4-.3.9-.4 1.4-.4.5 0 1 .2 1.4.4l15.8 7.4c.1.1.3.1.4.2l.1.1zM58 69.962v0c0 1.446-.281 2.676-.75 3.76-.093.181-.28.308-.487.272-2.173-.326-4.271-1.23-5.508-2.423a.46.46 0 0 0-.318-.127h-1.874a.447.447 0 0 0-.318.127c-1.237 1.193-3.335 2.097-5.508 2.423-.207.018-.413-.09-.488-.271-.468-1.085-.749-2.315-.749-3.761h.075v0H42c0-1.266.281-2.64.75-3.707.074-.18.28-.27.487-.253 2.173.344 4.271 1.248 5.526 2.441a.46.46 0 0 0 .319.127h1.855a.447.447 0 0 0 .318-.127c1.237-1.193 3.354-2.115 5.508-2.44.207-.019.413.072.488.252.468 1.067.749 2.441.749 3.707z"/></g></g></svg>