<svg width="100" height="109" xmlns="http://www.w3.org/2000/svg" xmlns:xlink="http://www.w3.org/1999/xlink"><defs><path d="M55.402 10.126l30.435 17.432a10.87 10.87 0 0 1 5.467 9.432v34.715a10.87 10.87 0 0 1-5.467 9.432L55.402 98.57a10.87 10.87 0 0 1-10.804 0L14.163 81.137a10.87 10.87 0 0 1-5.467-9.432V36.99a10.87 10.87 0 0 1 5.467-9.432l30.435-17.432a10.87 10.87 0 0 1 10.804 0z" id="a"/></defs><g fill="none" fill-rule="evenodd"><use fill="#FFF" xlink:href="#a"/><path stroke="#550BEB" d="M55.154 10.56a10.37 10.37 0 0 0-10.308 0L14.411 27.992a10.37 10.37 0 0 0-5.215 8.998v34.715c0 3.718 1.99 7.15 5.215 8.998l30.435 17.432a10.37 10.37 0 0 0 10.308 0l30.435-17.432a10.37 10.37 0 0 0 5.215-8.998V36.99c0-3.717-1.99-7.15-5.215-8.998L55.154 10.56z"/><g fill="#550BEB"><path d="M35.16 40c2.125.064 2.77 1.5 2.77 4.637v2.713c0 .924.738 1.65 1.677 1.65H47.643c1.305 0 2.355 1.033 2.355 2.317.008.214-.01.443-.063.683l-3.294 12c-.44 1.603-1.343 3-3.012 3H32.788a3 3 0 0 1-3.013-3V52c0-.194.02-.383.056-.566C31.293 46 30.695 48.4 32.147 43c.56-1.566 1.344-3 3.012-3zm-10.75 9h1.204a2.4 2.4 0 0 1 2.41 2.4v13.2a2.4 2.4 0 0 1-2.41 2.4H24.41A2.4 2.4 0 0 1 22 64.6V51.4a2.4 2.4 0 0 1 2.41-2.4z"/><path d="M64.84 40c-2.125.064-2.77 1.5-2.77 4.637v2.713c0 .924-.738 1.65-1.677 1.65H52.357c-1.305 0-2.355 1.033-2.355 2.317-.008.214.01.443.063.683l3.294 12c.44 1.603 1.343 3 3.012 3h10.841a3 3 0 0 0 3.013-3V52c0-.194-.02-.383-.056-.566C68.707 46 69.305 48.4 67.853 43c-.56-1.566-1.344-3-3.012-3zm10.75 9h-1.204a2.4 2.4 0 0 0-2.41 2.4v13.2a2.4 2.4 0 0 0 2.41 2.4h1.204A2.4 2.4 0 0 0 78 64.6V51.4a2.4 2.4 0 0 0-2.41-2.4z"/><path d="M55.688 44.16l2.46-2.98-2.46 2.98zm3.097-3.752a1 1 0 0 0-1.408.135l-2.46 2.98a1 1 0 1 0 1.543 1.274l2.46-2.98a1 1 0 0 0-.135-1.409zM44.149 45.16l-2.46-2.98 2.46 2.98zm-3.097-3.752a1 1 0 0 1 1.408.135l2.46 2.98a1 1 0 1 1-1.543 1.274l-2.46-2.98a1 1 0 0 1 .135-1.409zM49.77 38.437v4.152-4.152zm0-1a1 1 0 0 1 1 1v4.152a1 1 0 1 1-2 0v-4.152a1 1 0 0 1 1-1z" fill-rule="nonzero"/></g></g></svg>