<?xml version="1.0" encoding="UTF-8"?>
<svg width="90px" height="90px" viewBox="0 0 90 90" version="1.1" xmlns="http://www.w3.org/2000/svg" xmlns:xlink="http://www.w3.org/1999/xlink">
    <title>team_2</title>
    <g id="team_2" stroke="none" stroke-width="1" fill="none" fill-rule="evenodd">
        <g id="Group" transform="translate(4.500000, 15.750000)">
            <path d="M2.25,40.9866871 L24.6376927,21.71521 C27.4782533,25.4328758 29.7515522,27.9831688 31.4575893,29.3660889 C33.1636264,30.749009 35.9277633,32.2820791 39.75,33.9652992 L16.2964529,56.9658938 L2.25,40.9866871 Z" id="Path-11" stroke="#0250D3" stroke-width="2.25" fill="#FFFFFF"></path>
            <path d="M47.2561931,4.74609375 C38.6758925,0.52734375 33.2674561,-0.87890625 31.0308838,0.52734375 C28.7943115,1.93359375 27.8568115,3.49609375 28.2183838,5.21484375 C27.140598,5.77336948 26.46697,6.46599644 26.1975,7.29272461 C25.92803,8.11945278 25.92803,9.49350147 26.1975,11.4148707 C25.0964657,12.1657753 24.4578377,12.893045 24.2816162,13.5966797 C24.1053947,14.3003144 24.2754541,15.4439911 24.7917946,17.02771 C23.7894368,17.8612231 23.2551195,18.6460132 23.1888428,19.3820801 C23.1225661,20.118147 23.4868239,21.2220313 24.2816162,22.6937328 C27.2843543,25.5887914 30.3795691,28.0751171 33.5672607,30.15271 C36.7549524,32.2303028 40.1596155,33.9803028 43.78125,35.40271 L66.1878662,56.02771 L79.78125,39.3405519 L61.5591176,24.71797 L47.2561931,4.74609375 Z" id="Path-13" stroke="#0250D3" stroke-width="2.25" fill="#FFFFFF"></path>
            <path d="M55.7424316,1.33164746 C58.8986013,3.35512483 62.3650743,8.61789026 63.8772583,13.1966106 C64.885381,16.2490908 64.6782887,19.877493 63.2559814,24.0818171 C58.4980011,26.0050629 55.8011016,26.2171138 55.1652832,24.71797 C54.5294648,23.2188261 54.847374,22.0616561 56.1190109,21.24646 C53.6842107,21.9613213 52.0626295,21.6048848 51.2542671,20.1771504 C50.4459047,18.7494161 50.7178079,17.3834405 52.0699768,16.0792236 C49.1086121,15.8190479 47.5040175,15.0508594 47.2561931,13.7746582 C46.8844565,11.8603564 48.375,11.1049421 48.375,10.6761475 C48.375,10.2473528 47.7592321,10.2473528 46.2333169,8.78014791 C45.2160401,7.80201131 45.5569988,6.18779533 47.2561931,3.9375 C50.8095724,0.851280058 53.6383186,-0.0173374547 55.7424316,1.33164746 Z" id="Path-14" stroke="#0250D3" stroke-width="2.25" fill="#FFFFFF" stroke-linejoin="round"></path>
            <line x1="48.375" y1="10.6761475" x2="54.1511801" y2="8.21520996" id="Path-15" stroke="#0250D3" stroke-width="2.25" fill="#FFFFFF" stroke-linecap="round" stroke-linejoin="round"></line>
            <line x1="51.75" y1="16.3011475" x2="57.5261801" y2="13.84021" id="Path-15" stroke="#0250D3" stroke-width="2.25" fill="#FFFFFF" stroke-linecap="round" stroke-linejoin="round"></line>
            <line x1="55.125" y1="21.9261475" x2="60.9011801" y2="19.12771" id="Path-15" stroke="#0250D3" stroke-width="2.25" fill="#FFFFFF" stroke-linecap="round" stroke-linejoin="round"></line>
            <polygon id="Rectangle" fill="#0250D3" transform="translate(14.662618, 44.123657) rotate(-43.000000) translate(-14.662618, -44.123657) " points="7.03478405 32.5990742 23.0673687 33.1482404 23.1328683 54.9843748 6.19236866 55.6482404"></polygon>
            <polygon id="Rectangle" fill="#0250D3" transform="translate(66.937500, 43.090210) rotate(-140.000000) translate(-66.937500, -43.090210) " points="58.5 31.84021 74.9083507 32.7926087 75.375 54.34021 58.5 54.34021"></polygon>
            <path d="M38.25,3.9375 C36.696645,4.29318138 35.6994526,4.71945091 35.2584229,5.21630859 C34.8173931,5.71316628 34.5488994,7.12295632 34.4529419,9.44567871 L30.6558838,17.7183838" id="Path" stroke="#0250D3" stroke-width="1.125"></path>
            <line x1="32.4188232" y1="7.41906738" x2="28.2183838" y2="5.21484375" id="Path" stroke="#0250D3" stroke-width="2.25" fill="#FFFFFF" stroke-linecap="round" stroke-linejoin="round"></line>
            <line x1="30.0754395" y1="13.4542236" x2="25.875" y2="11.25" id="Path" stroke="#0250D3" stroke-width="2.25" fill="#FFFFFF" stroke-linecap="round" stroke-linejoin="round"></line>
            <line x1="27" y1="19.125" x2="24.75" y2="16.875" id="Path" stroke="#0250D3" stroke-width="2.25" fill="#FFFFFF" stroke-linecap="round" stroke-linejoin="round"></line>
        </g>
        <circle id="Oval" fill="#00F2D3" cx="22.5" cy="23.625" r="2.25"></circle>
        <path d="M67.5,11.4033901 L65.9388108,12.0212305 C65.3610866,12.2498648 64.7074038,11.9668715 64.4787695,11.3891473 C64.3735192,11.1231958 64.3735192,10.8271406 64.4787695,10.5611892 L65.0966099,9 L65.0966099,9 L64.4787695,7.43881084 C64.2501352,6.86108658 64.5331285,6.2074038 65.1108527,5.97876948 C65.3768042,5.87351922 65.6728594,5.87351922 65.9388108,5.97876948 L67.5,6.59660993 L67.5,6.59660993 L69.0611892,5.97876948 C69.6389134,5.75013517 70.2925962,6.03312848 70.5212305,6.61085274 C70.6264808,6.87680419 70.6264808,7.17285939 70.5212305,7.43881084 L69.9033901,9 L69.9033901,9 L70.5212305,10.5611892 C70.7498648,11.1389134 70.4668715,11.7925962 69.8891473,12.0212305 C69.6231958,12.1264808 69.3271406,12.1264808 69.0611892,12.0212305 L67.5,11.4033901 L67.5,11.4033901 Z" id="Star" fill="#00F2D3" transform="translate(67.500000, 9.000000) rotate(-331.000000) translate(-67.500000, -9.000000) "></path>
        <line x1="38.25" y1="9" x2="40.8515625" y2="12.4453125" id="Path-16" stroke="#0250D3" stroke-width="2.25" stroke-linecap="round" stroke-linejoin="round"></line>
        <line x1="48.375" y1="6.75" x2="47.25" y2="11.25" id="Path-16" stroke="#0250D3" stroke-width="2.25" stroke-linecap="round" stroke-linejoin="round"></line>
        <line x1="56.25" y1="11.25" x2="51.75" y2="13.5" id="Path-16" stroke="#0250D3" stroke-width="2.25" stroke-linecap="round" stroke-linejoin="round"></line>
        <path d="M21.8618386,8.08390934 L21.8409803,8.14021363 L21.3096835,9.45806597 L22.9743752,10.014471 C23.462151,10.1774739 23.7346783,10.7347869 23.583082,11.2592644 C23.4371003,11.7643168 22.9510627,12.0547513 22.4796991,11.9300182 L22.4253963,11.9137721 L20.5697203,11.2936093 L19.9218465,12.9007929 C19.7187014,13.4047123 19.1740987,13.6361468 18.7054424,13.4177164 C18.2541438,13.207376 18.0378381,12.6565784 18.2038337,12.1660907 L18.224692,12.1097864 L18.7930387,10.6996559 L17.5256248,10.2763869 C17.037849,10.113384 16.7653217,9.55607102 16.916918,9.03159351 C17.0628997,8.5265411 17.5489373,8.23610656 18.0203009,8.36083965 L18.0746037,8.3770858 L19.5330019,8.8641125 L20.1438258,7.34920709 C20.3469709,6.84528771 20.8915736,6.61385318 21.3602299,6.8322836 C21.7941709,7.03453399 22.0108477,7.55155616 21.8793037,8.02706975 L21.8618386,8.08390934 Z" id="Path" fill="#1BEAD3" fill-rule="nonzero"></path>
    </g>
</svg>