<?xml version="1.0" encoding="UTF-8"?>
<svg width="90px" height="90px" viewBox="0 0 90 90" version="1.1" xmlns="http://www.w3.org/2000/svg" xmlns:xlink="http://www.w3.org/1999/xlink">
    <title>time_2</title>
    <defs>
        <polygon id="path-1" points="4.57949667 3.375 22.5794967 3.375 22.5794967 29.25 13.017546 23.7821045 4.57949667 29.25"></polygon>
    </defs>
    <g id="time_2" stroke="none" stroke-width="1" fill="none" fill-rule="evenodd">
        <g id="Group" transform="translate(16.795503, 48.375000)">
            <mask id="mask-2" fill="white">
                <use xlink:href="#path-1"></use>
            </mask>
            <use id="Rectangle" fill="#0250D3" transform="translate(13.579497, 16.312500) rotate(23.000000) translate(-13.579497, -16.312500) " xlink:href="#path-1"></use>
            <path d="M7.63699179,6.75 L9.08498983,3.08287585 C11.1434234,5.35428544 13.8986725,7.60925293 17.3507369,9.84777832 C20.8028013,12.0863037 23.765692,13.2196045 26.2394088,13.2476807 L23.1606734,21.6018677 L7.63699179,6.75 Z" id="Rectangle" fill="#00F2D3" mask="url(#mask-2)"></path>
            <polygon id="Rectangle" fill="#00F2D3" mask="url(#mask-2)" transform="translate(13.395793, 15.827936) rotate(-7.000000) translate(-13.395793, -15.827936) " points="4.57949667 7.07127212 6.30309667 5.625 22.21209 24.5846 20.48849 26.0308721"></polygon>
        </g>
        <polygon id="Rectangle" fill="#0250D3" transform="translate(59.625000, 66.937500) rotate(-24.000000) translate(-59.625000, -66.937500) " points="50.625 54 68.625 54 68.625 79.875 59.0630493 74.4071045 50.625 79.875"></polygon>
        <circle id="Oval" stroke="#0250D3" stroke-width="2.25" fill="#FFFFFF" cx="45" cy="33.75" r="24.75"></circle>
        <path d="M45,12.375 C50.9025433,12.375 56.2462933,14.7674784 60.1144074,18.6355926 C63.9825216,22.5037067 66.375,27.8474567 66.375,33.75 C66.375,39.6525433 63.9825216,44.9962933 60.1144074,48.8644074 C56.2462933,52.7325216 50.9025433,55.125 45,55.125 C39.0974567,55.125 33.7537067,52.7325216 29.8855926,48.8644074 C26.0174784,44.9962933 23.625,39.6525433 23.625,33.75 C23.625,27.8474567 26.0174784,22.5037067 29.8855926,18.6355926 C33.7537067,14.7674784 39.0974567,12.375 45,12.375 Z" id="Oval" stroke="#0250D3" stroke-width="1.125"></path>
        <polygon id="Star" fill="#0250D3" points="45 39.8897356 37.7261575 43.7615853 39.1607644 35.6472827 33.2306756 29.9259147 41.3911539 28.7828495 45 21.375 48.6088461 28.7828495 56.7693244 29.9259147 50.8392356 35.6472827 52.2738425 43.7615853"></polygon>
        <polyline id="Path" stroke="#00F2D3" stroke-width="1.125" stroke-linecap="round" transform="translate(38.445694, 36.122498) rotate(-90.000000) translate(-38.445694, -36.122498) " points="43.1687164 33.8778534 39.2262726 38.3671417 33.7226715 37.0743256"></polyline>
    </g>
</svg>