<svg width="100" height="109" xmlns="http://www.w3.org/2000/svg" xmlns:xlink="http://www.w3.org/1999/xlink"><defs><path d="M55.402 10.126l30.435 17.432a10.87 10.87 0 0 1 5.467 9.432v34.715a10.87 10.87 0 0 1-5.467 9.432L55.402 98.57a10.87 10.87 0 0 1-10.804 0L14.163 81.137a10.87 10.87 0 0 1-5.467-9.432V36.99a10.87 10.87 0 0 1 5.467-9.432l30.435-17.432a10.87 10.87 0 0 1 10.804 0z" id="a"/></defs><g fill="none" fill-rule="evenodd"><use fill="#FFF" xlink:href="#a"/><path stroke="#550BEB" d="M55.154 10.56a10.37 10.37 0 0 0-10.308 0L14.411 27.992a10.37 10.37 0 0 0-5.215 8.998v34.715c0 3.718 1.99 7.15 5.215 8.998l30.435 17.432a10.37 10.37 0 0 0 10.308 0l30.435-17.432a10.37 10.37 0 0 0 5.215-8.998V36.99c0-3.717-1.99-7.15-5.215-8.998L55.154 10.56z"/><path d="M38.857 57.269A15.158 15.158 0 0 1 35 47.136C35 38.776 41.716 32 50 32c8.284 0 15 6.777 15 15.136 0 4.107-1.621 7.833-4.253 10.56L52.08 68.112h-.08a3.123 3.123 0 0 1-2.184.888 3.142 3.142 0 0 1-2.73-1.592L38.858 57.27zM50 56.293c5.114 0 9.26-4.183 9.26-9.344 0-5.16-4.146-9.343-9.26-9.343s-9.26 4.183-9.26 9.343 4.146 9.344 9.26 9.344zm1.292-9.252a1.15 1.15 0 0 0 .004-.095v-5.6c0-.62-.497-1.124-1.11-1.124-.613 0-1.112.504-1.112 1.125v4.668h-1.482c-.613 0-1.11.502-1.11 1.121 0 .618.497 1.122 1.11 1.122h2.594a1.116 1.116 0 0 0 1.106-1.217z" fill="#550BEB" fill-rule="nonzero"/></g></svg>