<?xml version="1.0" encoding="UTF-8"?>
<svg width="80px" height="80px" viewBox="0 0 80 80" version="1.1" xmlns="http://www.w3.org/2000/svg" xmlns:xlink="http://www.w3.org/1999/xlink">
    <title>time_2</title>
    <g id="time_2" stroke="none" stroke-width="1" fill="none" fill-rule="evenodd">
        <polygon id="Rectangle" fill="#0250D3" transform="translate(27.000000, 57.500000) rotate(23.000000) translate(-27.000000, -57.500000) " points="19 46 35 46 35 69 26.5004883 64.1396484 19 69"></polygon>
        <path d="M21.7647004,49.2520186 L23.2622844,45.7403341 C24.9204021,47.7593648 27.2837118,49.7637804 30.3522135,51.7535807 C33.4207153,53.7433811 35.6506105,54.7020752 37.0418992,54.6296631 L34.3066551,60.8022338 L21.7647004,49.2520186 Z" id="Rectangle" fill="#00F2D3"></path>
        <polygon id="Rectangle" fill="#00F2D3" points="20.1905854 53 21.1254954 50.8527358 33.7503602 62.1651562 32.9285785 64.0598196"></polygon>
        <polygon id="Rectangle" fill="#0250D3" transform="translate(53.000000, 59.500000) rotate(-24.000000) translate(-53.000000, -59.500000) " points="45 48 61 48 61 71 52.5004883 66.1396484 45 71"></polygon>
        <circle id="Oval" stroke="#0250D3" stroke-width="2" fill="#FFFFFF" cx="40" cy="30" r="22"></circle>
        <path d="M40,11 C45.2467051,11 49.9967051,13.1266474 53.4350288,16.5649712 C56.8733526,20.0032949 59,24.7532949 59,30 C59,35.2467051 56.8733526,39.9967051 53.4350288,43.4350288 C49.9967051,46.8733526 45.2467051,49 40,49 C34.7532949,49 30.0032949,46.8733526 26.5649712,43.4350288 C23.1266474,39.9967051 21,35.2467051 21,30 C21,24.7532949 23.1266474,20.0032949 26.5649712,16.5649712 C30.0032949,13.1266474 34.7532949,11 40,11 Z" id="Oval" stroke="#0250D3"></path>
        <polygon id="Star" fill="#0250D3" points="40 35.4575428 33.5343622 38.8991869 34.8095684 31.6864735 29.5383783 26.6008131 36.7921368 25.5847551 40 19 43.2078632 25.5847551 50.4616217 26.6008131 45.1904316 31.6864735 46.4656378 38.8991869"></polygon>
        <polyline id="Path" stroke="#00F2D3" stroke-linecap="round" transform="translate(34.173950, 32.108887) rotate(-90.000000) translate(-34.173950, -32.108887) " points="38.3721924 30.1136475 34.8677979 34.104126 29.975708 32.9549561"></polyline>
    </g>
</svg>