<svg xmlns="http://www.w3.org/2000/svg" width="62" height="33" viewBox="0 0 62 33">
  <g fill="none" fill-rule="evenodd" class="artboard">
    <g class="bitlogo">
      <path fill="#FFF" d="M30.332 8.604c1.224 0 2.216.989 2.216 2.208v17.336c0 1.22-.992 2.208-2.216 2.208a2.212 2.212 0 0 1-2.216-2.208V10.812c0-1.22.992-2.208 2.216-2.208zM7.254-.004c1.231 0 2.229.986 2.229 2.203v6.403h6.522c6.054 0 10.98 4.868 10.98 10.85 0 5.983-4.926 10.85-10.98 10.85-6.055 0-10.98-4.867-10.98-10.85v-6.444h-2.27c-1.232 0-2.23-.986-2.23-2.203 0-1.216.998-2.203 2.23-2.203h2.27V2.2c0-1.217.998-2.203 2.229-2.203zm31.744 0c1.237 0 2.24.986 2.24 2.203v6.403h5.614c1.237 0 2.24.987 2.24 2.203 0 1.217-1.003 2.203-2.24 2.203h-5.614v6.444c0 3.523 2.804 6.353 6.383 6.443 1.237.03 2.214 1.042 2.183 2.258-.032 1.197-1.028 2.146-2.239 2.146h-.058a11.06 11.06 0 0 1-7.61-3.268 10.697 10.697 0 0 1-3.139-7.579v-6.444h-.954c-1.237 0-2.24-.986-2.24-2.203 0-1.216 1.003-2.203 2.24-2.203h.954V2.2c0-1.217 1.003-2.203 2.24-2.203zM16.005 13.008H9.483v6.444c0 3.554 2.926 6.445 6.522 6.445s6.522-2.891 6.522-6.445c0-3.553-2.926-6.444-6.522-6.444z" class="combined_shape"/>
      <path fill="#D32733" d="M32.88 5.161c0 1.358-1.116 2.46-2.493 2.46-1.377 0-2.493-1.102-2.493-2.46 0-1.358 1.116-2.46 2.493-2.46 1.377 0 2.493 1.102 2.493 2.46" class="fill_9"/>
      <path fill="#D32733" d="M51.757 32.602l9.235-5.092a.579.579 0 0 0-.085-1.052l-9.937-3.577a.39.39 0 0 0-.467.167.389.389 0 0 0-.016.353l1.431 3.294a.682.682 0 0 0 .597.407l4.082.177a.05.05 0 0 1 .048.046.05.05 0 0 1-.04.052l-4.002.816a.678.678 0 0 0-.524.496l-.883 3.476a.39.39 0 0 0 .072.346.39.39 0 0 0 .489.091" class="fill_11"/>
    </g>
  </g>
</svg>
