<svg width="100" height="100" viewBox="0 0 100 100" xmlns="http://www.w3.org/2000/svg">
    <defs>
        <linearGradient x1="50%" y1="100%" x2="50%" y2="0%" id="9f92tthlka">
            <stop stop-color="#4DC5DD" offset="0%"/>
            <stop stop-color="#50ABDB" offset="94.488%"/>
        </linearGradient>
    </defs>
    <g transform="translate(10.625 15)" fill="none" fill-rule="evenodd">
        <rect fill="url(#9f92tthlka)" transform="rotate(167 36.487 40.201)" x="21.58" y="14.889" width="29.812" height="50.625" rx="3.375"/>
        <path d="M47.657 14.447a1.833 1.833 0 0 1 2.197 1.375l10.37 44.92a1.833 1.833 0 0 1-1.37 2.2l-27.125 6.262a1.833 1.833 0 0 1-2.197-1.376l-10.37-44.92a1.833 1.833 0 0 1 1.371-2.199l27.124-6.262z" stroke="#292647" stroke-width="1.687" stroke-linecap="round" stroke-linejoin="round"/>
        <text transform="rotate(-13 34.9 49.806)" font-family="Montserrat-SemiBold, Montserrat" font-size="2.362" font-weight="500" letter-spacing="-.052" fill="#292647">
                            <tspan x="27.899" y="50.306">Israel Israeli</tspan>
                        </text>
        <path d="m37.518 63.536.022-.003 1.33.154a.073.073 0 0 1 .062.05.072.072 0 0 1-.021.076l-1 .886a.05.05 0 0 1-.062.002.048.048 0 0 1-.019-.04l.011-.45c.001-.032.02-.062.051-.075l.472-.214a.006.006 0 0 0 .004-.008.006.006 0 0 0-.007-.004l-.51.095a.087.087 0 0 1-.086-.033l-.27-.361a.048.048 0 0 1-.008-.044.05.05 0 0 1 .053-.034zm-2.934-1.158a.28.28 0 0 1 .336.207l.49 2.118a.28.28 0 0 1-.213.333.28.28 0 0 1-.336-.206l-.49-2.118a.28.28 0 0 1 .213-.334zm-3.099-.392a.28.28 0 0 1 .338.205l.18.783.808-.186c.749-.173 1.496.28 1.664 1.012.17.73-.303 1.466-1.052 1.639-.75.173-1.496-.281-1.665-1.012l-.182-.787-.28.064a.28.28 0 0 1-.339-.205.28.28 0 0 1 .214-.333l.281-.065-.18-.782a.28.28 0 0 1 .213-.333zm3.928-.907a.28.28 0 0 1 .34.205l.18.783.695-.16a.28.28 0 0 1 .34.204.28.28 0 0 1-.216.334l-.695.16.182.787c.1.43.526.696.972.605a.28.28 0 0 1 .334.214.28.28 0 0 1-.217.326l-.007.002c-.36.073-.727.009-1.034-.182a1.333 1.333 0 0 1-.602-.837l-.182-.787-.118.027a.28.28 0 0 1-.34-.205.28.28 0 0 1 .216-.333l.118-.027-.18-.783a.28.28 0 0 1 .214-.333zm-2.478 2.247-.807.186.182.788a.82.82 0 0 0 .989.6.82.82 0 0 0 .625-.973.82.82 0 0 0-.989-.601zm1.489-1.67c.17-.04.34.063.378.229a.313.313 0 0 1-.24.372.313.313 0 0 1-.377-.23.313.313 0 0 1 .239-.371z" fill="#292647"/>
        <path d="M51.128 58.66a2.87 2.87 0 0 1 .61-2.49c-1.418-.635-3.12-.101-3.91 1.226a2.834 2.834 0 0 0 .889 3.848c1.292.847 3.055.58 4.05-.613a2.87 2.87 0 0 1-1.639-1.97z" stroke="#292647" stroke-width="1.125" stroke-linecap="round" stroke-linejoin="round"/>
        <path d="M57.008 57.309c.25 1.086-.164 2.225-1.068 2.933a3.113 3.113 0 0 1-3.179.396c.586-.702.81-1.62.61-2.49a2.874 2.874 0 0 0-1.64-1.97 3.113 3.113 0 0 1 3.03-1.039c1.124.24 1.996 1.083 2.246 2.169h0z" stroke="#292647" stroke-width="1.125" stroke-linecap="round" stroke-linejoin="round"/>
        <path d="M46.904 17.046a.783.783 0 0 1 .94.586l.238 1.036h.004l.03.128h-.005l.386 1.671.005-.001.03.128h-.006l.24 1.038a.782.782 0 0 1-.587.938l-5.831 1.347a.783.783 0 0 1-.94-.586l-.24-1.038-.003.002-.03-.128.004-.001-.385-1.671-.004.001-.03-.128.004-.001-.24-1.036a.782.782 0 0 1 .588-.939l5.832-1.346zm1.315 3.62-2.328.54c.008.036.012.069.013.102.026.858-.246 1.506-.715 1.614-.466.108-.99-.35-1.344-1.126a.555.555 0 0 1-.037-.11l-2.332.536.24 1.038a.468.468 0 0 0 .534.355l5.859-1.352a.467.467 0 0 0 .356-.533l-.246-1.064zm-4.127-2.498c-.39.09-.637.678-.614 1.48.002.088.041.199.137.402l.053.11.053.109c.069.144.107.23.132.305l.016.054.006.026c.019.08.027.158.03.298l.001.119.001.19c.003.263.016.393.056.48.33.726.808 1.143 1.197 1.053.391-.09.638-.68.614-1.483-.003-.087-.042-.198-.137-.4l-.106-.219a2.624 2.624 0 0 1-.132-.303l-.016-.054-.007-.027a1.27 1.27 0 0 1-.027-.275v-.29c0-.279-.011-.413-.05-.501-.331-.738-.814-1.164-1.207-1.074zm1.376 1.238c.005.052.008.113.01.185v.303c0 .152.003.242.012.312l.008.05.005.023c.016.068.042.136.098.258l.049.101.081.168c.054.113.094.2.121.274l2.338-.542-.386-1.671-2.336.539zm-2.067.477-2.34.54.385 1.672 2.343-.539a2.712 2.712 0 0 1-.01-.18l-.002-.113v-.189a2.677 2.677 0 0 0-.015-.316l-.008-.05-.005-.024a1.296 1.296 0 0 0-.098-.26l-.049-.101-.082-.169a3.483 3.483 0 0 1-.12-.27zm3.574-2.53-5.832 1.346a.467.467 0 0 0-.357.534l.245 1.063 2.33-.539a.54.54 0 0 1-.014-.106c-.024-.857.247-1.503.715-1.61.472-.11 1.002.359 1.355 1.147a.519.519 0 0 1 .03.088l2.328-.537-.239-1.036a.468.468 0 0 0-.534-.356l-.027.006z" fill="#292647" fill-rule="nonzero"/>
        <path stroke="#292647" stroke-width="1.125" stroke-linecap="round" stroke-linejoin="round" d="m39.286.625.098 5.625M66.844 11.596l-3.908 4.047M78.77 38.755l-5.624.098M67.809 66.874l-4.047-3.907M12.53 67.84l3.907-4.046M.595 40.12l5.624-.099M11.565 12.562l4.047 3.907"/>
    </g>
</svg>
