<svg width="100" height="100" viewBox="0 0 100 100" xmlns="http://www.w3.org/2000/svg">
    <defs>
        <linearGradient x1="36.889%" y1="0%" x2="62.955%" y2="96.678%" id="74o4pamota">
            <stop stop-color="#2DCA70" offset="0%"/>
            <stop stop-color="#5DC5F0" offset="100%"/>
        </linearGradient>
    </defs>
    <g transform="translate(.625 10)" fill="none" fill-rule="evenodd">
        <rect fill="url(#74o4pamota)" transform="rotate(17 79.375 48.105)" x="66.875" y="24.355" width="25" height="47.5" rx="3.75"/>
        <rect fill="url(#74o4pamota)" transform="rotate(-20 20 36.855)" x="7.5" y="13.105" width="25" height="47.5" rx="3.75"/>
        <path d="m70.442 24.247 20.92 6.396a2.187 2.187 0 0 1 1.451 2.731L81.301 71.03a2.187 2.187 0 0 1-2.731 1.452l-20.92-6.395a2.187 2.187 0 0 1-1.452-2.732L67.71 25.7a2.187 2.187 0 0 1 2.732-1.453zm-7.486 40.52 11.953 3.654M7.65 18.143l20.92-6.396A2.187 2.187 0 0 1 31.3 13.2l11.512 37.654a2.187 2.187 0 0 1-1.452 2.732L20.442 59.98a2.187 2.187 0 0 1-2.732-1.452L6.198 20.874a2.187 2.187 0 0 1 1.453-2.731zm16.452 37.778 11.954-3.654" stroke="#292647" stroke-width="1.875" stroke-linecap="round" stroke-linejoin="round"/>
        <path d="m64.36 14.773 6.908 3.925a.446.446 0 0 0 .657-.47l-1.487-7.794a.289.289 0 0 0-.29-.235.304.304 0 0 0-.238.13l-1.61 2.218a.511.511 0 0 0-.036.543l1.459 2.693a.037.037 0 0 1-.011.048.038.038 0 0 1-.05-.004l-2.08-2.25a.513.513 0 0 0-.528-.14l-2.623.803a.304.304 0 0 0-.2.183.288.288 0 0 0 .13.35M39.45 66.302l-6.616-4.396a.446.446 0 0 0-.69.422l.94 7.88a.289.289 0 0 0 .274.253.304.304 0 0 0 .246-.112l1.76-2.1a.511.511 0 0 0 .075-.54l-1.268-2.788a.037.037 0 0 1 .015-.048.038.038 0 0 1 .05.009l1.918 2.388a.513.513 0 0 0 .516.178l2.673-.619a.304.304 0 0 0 .211-.169.288.288 0 0 0-.104-.358" fill="#292647"/>
        <path d="M63.805 8.99C55.055-1.845 44.43-2.887 31.93 5.863M36.93 69.614c7.5 8.334 15.625 9.375 24.375 3.125" stroke="#292647" stroke-width="1.25" stroke-linecap="round" stroke-linejoin="round"/>
    </g>
</svg>
