<?xml version="1.0" encoding="UTF-8"?>
<svg width="499px" height="468px" viewBox="0 0 499 468" version="1.1" xmlns="http://www.w3.org/2000/svg" xmlns:xlink="http://www.w3.org/1999/xlink">
    <title>bitcard-right</title>
    <defs>
        <linearGradient x1="62.6474708%" y1="-7.68916093%" x2="35.2722053%" y2="112.040677%" id="linearGradient-1">
            <stop stop-color="#23A8BF" offset="0%"></stop>
            <stop stop-color="#2980A9" offset="71.2125594%"></stop>
            <stop stop-color="#3675AE" offset="100%"></stop>
        </linearGradient>
        <linearGradient x1="61.4721874%" y1="3.91233953%" x2="43.3129417%" y2="96.766321%" id="linearGradient-2">
            <stop stop-color="#127283" offset="0%"></stop>
            <stop stop-color="#2980A9" offset="44.5052795%"></stop>
            <stop stop-color="#269AB8" offset="100%"></stop>
        </linearGradient>
    </defs>
    <g id="bitcard-right" stroke="none" stroke-width="1" fill="none" fill-rule="evenodd">
        <g id="Group-7" transform="translate(0.000000, -3.000000)">
            <g id="Group-4" transform="translate(11.883342, 34.629401)">
                <g id="Group-3" transform="translate(160.409928, 237.192845) scale(1, -1) rotate(20.000000) translate(-160.409928, -237.192845) translate(55.209850, 57.151585)">
                    <rect id="Rectangle" fill="#8BDFEA" x="2.27283596e-13" y="0.215839562" width="207.497447" height="359.866682" rx="22.4923171"></rect>
                    <rect id="Rectangle" fill="url(#linearGradient-1)" x="2.9027093" y="1.5915938e-12" width="207.497447" height="359.866682" rx="22.4923171"></rect>
                    <path d="M119.107278,310.494182 C119.2621,310.70917 122.901233,315.851154 122.901233,323.804648 C122.901233,331.78568 119.233125,336.604295 119.076951,336.805455 C118.787687,337.178227 118.344337,337.375014 117.895461,337.375014 C117.588762,337.375014 117.279485,337.28318 117.014899,337.092776 C116.362949,336.624033 116.229244,335.735361 116.716304,335.107771 C116.745648,335.069241 119.954567,330.793473 119.954567,323.804648 C119.954567,316.780957 116.716426,312.153691 116.683768,312.107715 C116.224456,311.462987 116.392661,310.580342 117.061309,310.136538 C117.729957,309.692734 118.644405,309.851818 119.107278,310.494182 Z M113.780111,313.303741 C113.902152,313.473226 116.769258,317.52396 116.769258,323.764758 C116.769258,330.032859 113.873053,333.837048 113.749784,333.995896 C113.46052,334.368668 113.01717,334.565455 112.568294,334.565455 C112.261595,334.565455 111.952318,334.473621 111.687732,334.283217 C111.035782,333.814474 110.902077,332.925802 111.389137,332.298212 C111.409518,332.271264 113.822592,329.041716 113.822592,323.764758 C113.822592,318.401758 111.383489,314.95474 111.358811,314.920465 C110.895079,314.276919 111.061075,313.393211 111.729722,312.946688 C112.398247,312.500402 113.316379,312.660195 113.780111,313.303741 Z M108.366226,315.998443 C108.4588,316.123961 110.633071,319.127529 110.633071,323.726311 C110.633071,328.352513 108.429211,331.183051 108.335409,331.301241 C108.045408,331.666686 107.606968,331.858745 107.163495,331.858745 C106.851517,331.858745 106.537206,331.76372 106.270287,331.567406 C105.623616,331.091927 105.499856,330.201836 105.993791,329.579446 C106.005087,329.564554 107.686405,327.34636 107.686405,323.726311 C107.686405,320.080497 105.98004,317.662916 105.962851,317.639396 C105.492121,317.000578 105.64854,316.115215 106.312154,315.662073 C106.975768,315.208696 107.895496,315.359388 108.366226,315.998443 Z M100.902198,318.390329 C101.520261,317.858355 102.46921,317.909768 103.021588,318.504738 C103.042337,318.526957 103.185619,318.684269 103.384887,318.95847 C103.962065,319.718315 104.954723,321.35525 104.954723,323.629112 C104.954723,323.646486 104.953864,323.663387 104.953741,323.680642 L104.954171,323.704753 L104.954171,323.704753 L104.9546,323.728864 C104.9546,326.000126 103.964275,327.635997 103.386729,328.397024 C103.186478,328.672762 103.04246,328.831018 103.02171,328.853593 C102.469333,329.448326 101.520384,329.499502 100.902198,328.967646 C100.284258,328.43579 100.230972,327.522416 100.783472,326.927446 C100.784823,326.926028 100.801029,326.907709 100.827795,326.874852 L100.827795,326.874852 L100.821165,326.868824 L100.81451,326.874198 C100.837049,326.850662 100.867421,326.816488 100.907887,326.767097 L100.951555,326.712695 C101.271268,326.270781 101.936601,325.172558 101.951702,323.680642 C101.937583,322.184827 101.269426,321.084239 100.950081,320.64339 C100.872977,320.545528 100.819814,320.488088 100.81036,320.478278 L100.827795,320.483242 C100.801029,320.450385 100.7847,320.432066 100.783472,320.430647 C100.230972,319.835678 100.284135,318.922185 100.902198,318.390329 Z" id="ic-EMV/Active" fill="#FFFFFF" transform="translate(111.651371, 323.630106) rotate(90.000000) translate(-111.651371, -323.630106) "></path>
                    <polygon id="Rectangle" fill="#BFCBD3" points="140.401017 -1.03140976e-13 182.900494 -1.03140976e-13 182.900494 359.866682 140.401017 359.866682"></polygon>
                </g>
                <path d="M238.271208,15.312563 L400.781781,15.3026129 C413.203944,15.2990978 423.274714,25.3686345 423.275475,37.7907982 C423.275475,37.7917165 423.275475,37.7926347 423.27272,37.7935528 L423.253434,352.679487 C423.249919,365.100575 413.180827,375.169666 400.75974,375.173181 L238.249167,375.183131 C225.827004,375.186646 215.756234,365.117109 215.755473,352.694946 C215.755473,352.694027 215.755473,352.693109 215.758228,352.692191 L215.777514,37.8062571 C215.781029,25.3851694 225.850121,15.3160784 238.271208,15.312563 Z" id="Rectangle" fill="#8BDFEA" transform="translate(319.515474, 195.242872) rotate(10.000000) translate(-319.515474, -195.242872) "></path>
                <g id="Group-3" transform="translate(321.695924, 195.524162) rotate(10.000000) translate(-321.695924, -195.524162) translate(217.947200, 15.590821)">
                    <rect id="Rectangle" fill="url(#linearGradient-2)" x="2.27283596e-13" y="0" width="207.497447" height="359.866682" rx="22.4923171"></rect>
                    <g id="Atoms/Logos/bit" transform="translate(19.999754, 304.887050)">
                        <g id="bit_logo" transform="translate(-0.000000, 0.000000)">
                            <path d="M34.6075723,5.5339422 C34.6075723,6.98918406 33.4136053,8.16891223 31.9408953,8.16891223 C30.4681075,8.16891223 29.2742183,6.98918406 29.2742183,5.5339422 C29.2742183,4.07870035 30.4681075,2.89897217 31.9408953,2.89897217 C33.4136053,2.89897217 34.6075723,4.07870035 34.6075723,5.5339422" id="Fill-9" fill="#D32733"></path>
                            <path d="M9.58116543,13.9410613 L9.58116543,20.8458776 C9.58116543,24.6530751 12.7105732,27.7503874 16.5570321,27.7503874 C20.4036459,27.7503874 23.5329762,24.6530751 23.5329762,20.8458776 C23.5329762,17.0384502 20.4036459,13.9410613 16.5571869,13.9410613 L9.58116543,13.9410613 Z M16.5571869,32.4703166 C10.0812051,32.4703166 4.81271727,27.2556049 4.81271727,20.8458776 L4.81271727,13.9410613 L2.38426278,13.9410613 C1.0674117,13.9410613 0,12.8845448 0,11.581135 C0,10.2778018 1.0674117,9.22120874 2.38426278,9.22120874 L4.81271727,9.22120874 L4.81271727,2.3599799 C4.81271727,1.05664671 5.88012897,5.36225008e-05 7.19690266,5.36225008e-05 C8.51375373,5.36225008e-05 9.58116543,1.05664671 9.58116543,2.3599799 L9.58116543,9.22120874 L16.5571869,9.22120874 C23.033014,9.22120874 28.3015018,14.4359204 28.3015018,20.8456478 C28.3015018,27.2556049 23.033014,32.4703166 16.5571869,32.4703166 L16.5571869,32.4703166 Z" id="Fill-1" fill="#FFFFFF"></path>
                            <path d="M31.8816358,32.5277463 C30.5724526,32.5277463 29.5112563,31.4686201 29.5112563,30.1620854 L29.5112563,11.5885611 C29.5112563,10.2820264 30.5724526,9.22290024 31.8816358,9.22290024 C33.1908191,9.22290024 34.2520154,10.2820264 34.2520154,11.5885611 L34.2520154,30.1620854 C34.2520154,31.4686201 33.1908191,32.5277463 31.8816358,32.5277463" id="Fill-4" fill="#FFFFFF"></path>
                            <path d="M50.3750367,27.7480357 C46.5464885,27.6518982 43.5475991,24.620082 43.5475991,20.8458239 L43.5475991,13.9410843 L49.5525335,13.9410843 C50.8758497,13.9410843 51.9486427,12.8845678 51.9486427,11.581158 C51.9486427,10.2777482 50.8758497,9.22115512 49.5525335,9.22115512 L43.5475991,9.22115512 L43.5475991,2.36000288 C43.5475991,1.05659308 42.4748839,-4.54741085e-13 41.1514898,-4.54741085e-13 C39.8280958,-4.54741085e-13 38.7553028,1.05659308 38.7553028,2.36000288 L38.7553028,9.22115512 L37.7347766,9.22115512 C36.4114604,9.22115512 35.3387451,10.2777482 35.3387451,11.581158 C35.3387451,12.8845678 36.4114604,13.9410843 37.7347766,13.9410843 L38.7553028,13.9410843 L38.7553028,20.8458239 C38.7553028,23.8983231 39.947563,26.781988 42.112438,28.9658793 C44.273113,31.1455574 47.1641242,32.3888334 50.252614,32.4663562 C50.273614,32.4671988 50.2942252,32.4671988 50.3150698,32.4671988 C51.609997,32.4671988 52.6759456,31.4499034 52.7092346,30.1675595 C52.7428347,28.8644562 51.6978862,27.7813582 50.3750367,27.7480357" id="Fill-6" fill="#FFFFFF"></path>
                            <path d="M54.7987123,34.9348446 L64.6771293,29.4793411 C64.8917491,29.3607867 65.0167756,29.1292171 64.9971941,28.8867998 C64.9776126,28.6442287 64.8169974,28.4353545 64.5860596,28.3521125 L53.9572503,24.5195197 C53.7725467,24.4525876 53.5612682,24.5228279 53.4569887,24.6985438 C53.389075,24.8131746 53.3868216,24.9548091 53.4398161,25.0768255 L54.9709831,28.6051465 C55.0814789,28.8597193 55.329434,29.0292805 55.6090924,29.041436 L59.9760073,29.2316155 C60.0028931,29.2327695 60.0247281,29.2535415 60.0268261,29.2801605 C60.0290018,29.3067025 60.010819,29.3306288 59.9843994,29.3360911 L55.7035811,30.2105934 C55.4293619,30.266524 55.2117894,30.4729364 55.1435648,30.7416649 L54.1982896,34.4659353 C54.1656537,34.5947988 54.1905969,34.7343561 54.2759941,34.8367545 C54.4071593,34.9938526 54.627063,35.0299343 54.7987123,34.9348446" id="Fill-11" fill="#D32733"></path>
                        </g>
                    </g>
                    <g id="Group-5" transform="translate(127.498431, 302.387975)" fill-rule="nonzero">
                        <rect id="Rectangle" fill="#FF5F00" x="21.0778005" y="4.0022369" width="17.8512352" height="29.4263004"></rect>
                        <path d="M22.916488,18.7179861 C22.9120058,12.9767135 25.5234115,7.5521989 29.9982677,4.00743498 C22.3961911,-2.02230465 11.4793043,-1.14402093 4.91970183,6.02505194 C-1.63990061,13.1941248 -1.63990061,24.2470455 4.91970183,31.4161184 C11.4793043,38.5851912 22.3961911,39.463475 29.9982677,33.4337353 C25.5219875,29.8878457 22.9104222,24.4610829 22.916488,18.7179861 Z" id="Path" fill="#EB001B"></path>
                        <path d="M59.9992617,18.7179861 C59.9992617,25.8826901 55.9456103,32.4183696 49.5603349,35.5492965 C43.1750595,38.6802235 35.5790139,37.8567224 29.9982677,33.4285373 C34.4711714,29.8807639 37.0827737,24.4569706 37.0827737,18.7153871 C37.0827737,12.9738036 34.4711714,7.55001024 29.9982677,4.0022369 C35.5790139,-0.425948185 43.1750595,-1.24944931 49.5603349,1.88147762 C55.9456103,5.01240455 59.9992617,11.5480841 59.9992617,18.712788 L59.9992617,18.7179861 Z" id="Path" fill="#F79E1B"></path>
                    </g>
                    <g id="Group-2" transform="translate(137.498308, 19.992593)">
                        <path d="M2.04555237e-12,4.86479779 C2.04555237e-12,2.17804416 2.27829395,-4.23982819e-13 5.16249146,-4.23982819e-13 L44.8368933,-4.23982819e-13 C47.6880586,-4.23982819e-13 49.9993848,2.18859595 49.9993848,4.86479779 L49.9993848,32.6213149 C49.9993848,35.3080685 47.7210908,37.4861127 44.8368933,37.4861127 L5.16249146,37.4861127 C2.31132615,37.4861127 2.04555237e-12,35.2975167 2.04555237e-12,32.6213149 L2.04555237e-12,4.86479779 Z" id="chip" fill="#E3EAF1" transform="translate(24.999692, 18.743056) rotate(-360.000000) translate(-24.999692, -18.743056) "></path>
                        <path d="M24.9922637,4.99814836 C21.5436884,4.99814836 18.7231584,8.18496031 17.5776838,12.8256565 C17.436767,13.396557 17.4862523,13.9988689 17.7325198,15.0143339 L18.4216831,17.5660294 C18.5290525,18.0018883 18.5820175,18.2985052 18.5989087,18.5558496 L18.6050997,18.7430563 C18.6050997,19.0519539 18.5563248,19.3818547 18.4231793,19.9300791 L17.738252,22.5017958 C17.493843,23.5259023 17.4460553,24.1342807 17.5900164,24.7101 C18.743766,29.3248981 21.5565032,32.4879643 24.9922637,32.4879643 C28.4457492,32.4879643 31.2692587,29.2920297 32.4115324,24.6414131 C32.5512935,24.0723943 32.5011648,23.4724031 32.2541884,22.4602375 L31.5634144,19.9162218 C31.4557204,19.4814158 31.4025852,19.1856623 31.385639,18.9294021 L31.3794276,18.7430563 C31.3794276,18.3847624 31.451263,17.9913002 31.6573374,17.2310762 L31.9457865,16.214602 C32.4545214,14.4589508 32.6077098,13.6555338 32.426161,12.9047246 C31.2940736,8.22288915 28.4612077,4.99814836 24.9922637,4.99814836 Z" id="chip_details" fill="#C3CFDB" fill-rule="nonzero" transform="translate(24.999692, 18.743056) rotate(-360.000000) translate(-24.999692, -18.743056) "></path>
                        <line x1="1.81826877e-12" y1="12.8333698" x2="49.9993848" y2="12.8333698" id="Path-2" stroke="#C3CFDB" stroke-width="2.49914634"></line>
                        <line x1="0" y1="25.3287406" x2="49.9993848" y2="25.3287406" id="Path-2" stroke="#C3CFDB" stroke-width="2.49914634"></line>
                    </g>
                </g>
            </g>
            <path d="M14.4922125,205.204062 L14.4771975,209.742702 C14.4729106,211.038543 13.4187109,212.085538 12.1225768,212.081244 C11.5479878,212.079322 10.9940608,211.866734 10.5657803,211.483758 L7.18205348,208.45797 L2.64238397,208.442887 C1.34624979,208.43858 0.299000711,207.384603 0.303274562,206.088762 C0.30518813,205.514304 0.517815737,204.960506 0.900871687,204.532328 L3.92729159,201.149416 L3.94230655,196.610776 C3.94659352,195.314935 5.00079314,194.26794 6.29692732,194.272234 C6.87151626,194.274156 7.42544323,194.486744 7.85372376,194.86972 L11.2374506,197.895508 L15.7771201,197.910591 C17.0732543,197.914898 18.1205034,198.968875 18.1162295,200.264716 C18.114316,200.839174 17.9016883,201.392972 17.5186324,201.82115 L14.4922125,205.204062 Z" id="Star" fill="#CAE4FF" transform="translate(9.209752, 203.176739) scale(-1, 1) rotate(-92.000000) translate(-9.209752, -203.176739) "></path>
            <path d="M264.162553,14.5546526 L264.146999,19.0939165 C264.142559,20.3899348 263.088379,21.4371987 261.792423,21.4330582 C261.217912,21.4312049 260.664087,21.2186535 260.23591,20.8356761 L256.853007,17.8098769 L252.313961,17.7953317 C251.018005,17.7911788 249.971025,16.7371818 249.975451,15.4411635 C249.977434,14.8666259 250.190098,14.3127266 250.573153,13.884445 L253.599561,10.5007094 L253.615114,5.96144552 C253.619555,4.66542716 254.673735,3.61816324 255.969691,3.62230377 C256.544201,3.62415707 257.098027,3.83670845 257.526203,4.21968585 L260.909106,7.24548513 L265.448153,7.26003031 C266.744109,7.26418315 267.791089,8.31818015 267.786662,9.61419851 C267.78468,10.1887361 267.572015,10.7426353 267.188961,11.170917 L264.162553,14.5546526 Z" id="Star" fill="#CAE4FF" transform="translate(258.881057, 12.527681) scale(-1, 1) rotate(-39.000000) translate(-258.881057, -12.527681) "></path>
            <path d="M480.855908,56.0503147 L480.845038,59.3282208 C480.841935,60.2641053 480.080562,61.0202742 479.144465,61.0171809 C478.729484,61.0157958 478.329427,60.8622631 478.020115,60.5856719 L475.576329,58.4004008 L472.297678,58.3895332 C471.361581,58.3864303 470.60524,57.6252307 470.608334,56.6893462 C470.60972,56.2744595 470.763287,55.8744931 471.039941,55.5652518 L473.225709,53.1220209 L473.236579,49.8441147 C473.239683,48.9082303 474.001055,48.1520614 474.937152,48.1551547 C475.352133,48.1565397 475.752191,48.3100724 476.061502,48.5866636 L478.505288,50.7719347 L481.783939,50.7828024 C482.720036,50.7859052 483.476377,51.5471049 483.473283,52.4829893 C483.471898,52.8978761 483.31833,53.2978425 483.041676,53.6070838 L480.855908,56.0503147 Z" id="Star" fill="#CAE4FF" transform="translate(477.040809, 54.586168) scale(-1, 1) rotate(-90.000000) translate(-477.040809, -54.586168) "></path>
            <path d="M494.689757,97.6819537 L494.674192,102.22111 C494.669748,103.517098 493.615541,104.56434 492.319554,104.560203 C491.74503,104.558351 491.191192,104.345806 490.763007,103.962839 L487.380031,100.937119 L482.840878,100.922586 C481.544891,100.918436 480.497889,99.8644667 480.502318,98.5684789 C480.504303,97.9939549 480.716973,97.4400682 481.100038,97.0117957 L484.126526,93.6281325 L484.142091,89.0889758 C484.146535,87.7929881 485.200742,86.7457463 486.496729,86.7498835 C487.071253,86.7517353 487.625091,86.9642803 488.053277,87.3472476 L491.436252,90.372967 L495.975406,90.3875005 C497.271392,90.3916501 498.318395,91.4456196 498.313965,92.7416073 C498.311981,93.3161314 498.09931,93.870018 497.716245,94.2982905 L494.689757,97.6819537 Z" id="Star" fill="#CAE4FF" transform="translate(489.408142, 95.655043) scale(-1, 1) rotate(-45.000000) translate(-489.408142, -95.655043) "></path>
        </g>
    </g>
</svg>