<svg width="100" height="100" viewBox="0 0 100 100" xmlns="http://www.w3.org/2000/svg">
    <defs>
        <linearGradient x1="50%" y1="0%" x2="50%" y2="100%" id="pmzc5b7fla">
            <stop stop-color="#C84E6B" offset="0%"/>
            <stop stop-color="#D05944" offset="100%"/>
        </linearGradient>
        <linearGradient x1="50%" y1="0%" x2="50%" y2="100%" id="4wbk2cgrab">
            <stop stop-color="#C84E6B" offset="0%"/>
            <stop stop-color="#D05944" offset="100%"/>
        </linearGradient>
        <linearGradient x1="50%" y1="0%" x2="50%" y2="100%" id="xotc3ocrbc">
            <stop stop-color="#C84E6B" offset="0%"/>
            <stop stop-color="#D05944" offset="100%"/>
        </linearGradient>
    </defs>
    <g fill="none" fill-rule="evenodd">
        <path d="M87.532 46.634c-3.783 3.974-14.104 2.995-15.455-2.398-1.351-5.393 5.058-18.183 9.949-16.622 4.89 1.562 9.288 15.046 5.506 19.02z" fill="#C84E6B"/>
        <path d="M82.5 30.577v43.125m0-36.25 3.125-2.5m-3.125 7.5-3.125-2.5m10.032 6.057c-3.783 3.974-14.104 2.995-15.455-2.398-1.351-5.393 5.058-18.183 9.949-16.622 4.89 1.562 9.288 15.046 5.506 19.02h0z" stroke="#292647" stroke-width="1.687" stroke-linecap="round" stroke-linejoin="round"/>
        <path fill="url(#pmzc5b7fla)" d="M8.75 8.702h7.5l-2.5 11.25H4.375z" transform="translate(7.5 25.625)"/>
        <path fill="url(#4wbk2cgrab)" d="M26.25 8.702h8.125L35 19.952h-9.375z" transform="translate(7.5 25.625)"/>
        <path fill="url(#xotc3ocrbc)" d="M44.375 8.702H52.5l4.375 11.25H47.5z" transform="translate(7.5 25.625)"/>
        <path d="M43.39 61.756a.913.913 0 0 1 .01-1.271.893.893 0 0 1 1.26-.011l6.293 6.348a.912.912 0 0 1-.397 1.53.894.894 0 0 1-.874-.247l-6.293-6.349zm7.83 2.262a.894.894 0 0 0 1.516-.4.912.912 0 0 0-.246-.882l-2.85-2.874a.894.894 0 0 0-1.516.4.912.912 0 0 0 .246.883l2.85 2.873zm36.872 10.027c0 .501-.403.907-.9.907H8.4a.903.903 0 0 1-.899-.907c0-.5.402-.907.899-.907h4.545V52.631c-2.519-.962-4.192-3.387-4.21-6.104v-.035a.914.914 0 0 1 .08-.362l5.698-13.918a.907.907 0 0 1 .198-.296.606.606 0 0 1 .056-.038.91.91 0 0 1 .232-.154.876.876 0 0 1 .34-.07H60.18a.807.807 0 0 1 .565.219c.02.016.045.025.063.043a.907.907 0 0 1 .198.296c1.52 3.345 3.476 8.008 5.869 13.99.833 2.083-.625 4.375-4.375 6.875v20l24.693.061c.496 0 .899.406.899.907zM44.358 47.401c.433 2.242 2.38 3.86 4.643 3.86 2.264 0 4.211-1.618 4.644-3.86h-9.287zM10.97 45.587h9.207l2.978-12.12h-7.219l-4.966 12.12zm14.037-12.12-2.978 12.12h9.262l.994-12.12h-7.278zm18.204 0 .99 12.122h9.278l-2.972-12.124-7.296.002zm9.145 0 2.977 12.122h9.207l-4.962-12.122h-7.222zm-10.95 0h-7.312l-.995 12.12H42.4l-.994-12.12zM21.884 47.399c.424 2.242 2.367 3.863 4.629 3.863 2.261 0 4.204-1.621 4.628-3.863h-9.257zm11.237 0c.429 2.243 2.374 3.863 4.638 3.863s4.21-1.62 4.638-3.863H33.12zm22.51 0c.429 2.243 2.375 3.863 4.638 3.863 2.264 0 4.21-1.62 4.638-3.863h-9.276zm-40.375 3.866c2.264-.004 4.208-1.624 4.64-3.866h-9.277c.431 2.242 2.374 3.861 4.637 3.866zm-.514 21.873h4.723V56.924c0-.5.403-.907.9-.907h9.79c.496 0 .898.406.898.907v16.214h4.742V56.922c0-.5.402-.907.899-.907h18.441c.497 0 .9.406.9.907v16.216h4.74V53.026c-.18.014-.338.053-.514.053a6.495 6.495 0 0 1-5.63-3.309 6.463 6.463 0 0 1-5.626 3.302 6.463 6.463 0 0 1-5.627-3.302 6.463 6.463 0 0 1-5.627 3.304 6.463 6.463 0 0 1-5.628-3.304 6.445 6.445 0 0 1-5.62 3.308 6.445 6.445 0 0 1-5.619-3.308 6.492 6.492 0 0 1-5.628 3.309c-.18 0-.341-.039-.514-.053v20.112zM54.236 57.83H37.584v15.31h16.652v-15.31zM29.245 73.14V57.83h-7.983v15.307h7.983zm-2.52-7.699c0 .501.403.907.9.907a.903.903 0 0 0 .899-.907.911.911 0 0 0-.264-.641.895.895 0 0 0-.635-.266.903.903 0 0 0-.9.907z" fill="#000" fill-rule="nonzero"/>
    </g>
</svg>
