<svg width="100" height="100" viewBox="0 0 100 100" xmlns="http://www.w3.org/2000/svg">
    <defs>
        <linearGradient x1="35.966%" y1=".351%" x2="64.379%" y2="98.092%" id="5gk7znphua">
            <stop stop-color="#6FC8F5" offset="0%"/>
            <stop stop-color="#B692FF" offset="100%"/>
        </linearGradient>
    </defs>
    <g fill="none" fill-rule="evenodd">
        <g transform="translate(25 33.75)">
            <rect fill="url(#5gk7znphua)" transform="rotate(-90 30 15)" x="15.313" y="-11.875" width="29.375" height="53.75" rx="3.75"/>
            <path d="M2.5 5.313h48.75a2.5 2.5 0 0 1 2.5 2.5v29.292a2.5 2.5 0 0 1-2.5 2.5H2.5a2.5 2.5 0 0 1-2.5-2.5V7.812a2.5 2.5 0 0 1 2.5-2.5zM0 32.647h53.75m-36.168 6.958h18.586v6.46H17.582v-6.46zm-3.517 6.46h25.117" stroke="#292647" stroke-width="1.875" stroke-linecap="round" stroke-linejoin="round"/>
        </g>
        <path stroke="#292647" stroke-width="1.25" stroke-linecap="round" stroke-linejoin="round" d="M7.5 33.125v3.75M12.5 38.75 15 37.5M85 26.25c-2.083-4.583-6.458-6.875-13.125-6.875S57.083 24.583 47.5 35M10.625 36.25c7.083-10 15.417-10 25 0"/>
        <g stroke="#292647" stroke-linecap="round" stroke-linejoin="round">
            <path d="m16.966 60.495-1.294.323a.748.748 0 0 0-.548.904c.1.4.506.641.908.541l1.294-.323a.748.748 0 0 0 .547-.904.747.747 0 0 0-.907-.54zM13.275 61.484l-1.293.323a.748.748 0 0 0-.548.904c.1.399.506.641.908.54l1.293-.322a.748.748 0 0 0 .548-.904.747.747 0 0 0-.908-.54zM9.585 62.473l-1.294.323a.748.748 0 0 0-.547.904c.099.399.505.64.907.54l1.294-.322a.748.748 0 0 0 .548-.904.747.747 0 0 0-.908-.541zM17.787 63.56l-1.294.323a.748.748 0 0 0-.548.904c.1.4.506.641.908.541l1.294-.323a.748.748 0 0 0 .548-.904.747.747 0 0 0-.908-.54zM14.097 64.55l-1.294.322a.748.748 0 0 0-.548.904c.1.4.506.641.908.541l1.294-.323a.748.748 0 0 0 .547-.904.747.747 0 0 0-.907-.54zM10.406 65.538l-1.293.323a.748.748 0 0 0-.548.904c.1.399.506.641.908.54l1.293-.322a.748.748 0 0 0 .548-.904.747.747 0 0 0-.908-.54zM18.608 66.626l-1.294.322a.748.748 0 0 0-.547.904c.1.4.506.642.908.541l1.293-.322a.748.748 0 0 0 .548-.904.747.747 0 0 0-.908-.541zM14.918 67.614l-1.294.323a.748.748 0 0 0-.548.904c.1.4.506.641.908.541l1.294-.323a.748.748 0 0 0 .548-.904.747.747 0 0 0-.908-.54zM11.228 68.603l-1.294.323a.748.748 0 0 0-.548.904c.1.399.506.641.908.54l1.294-.322a.748.748 0 0 0 .547-.904.747.747 0 0 0-.907-.54z" stroke-width=".5"/>
            <path d="m18.925 71.417 1.358 5.071-7.244 1.941-1.359-5.07 7.245-1.942zm-4.64-24.767a1.654 1.654 0 0 1 1.994 1.17h0l5.488 20.697a1.655 1.655 0 0 1-1.165 2.01h0L9.977 73.518l-.03.008a1.655 1.655 0 0 1-2.028-1.168h0L2.512 51.684a1.655 1.655 0 0 1 1.16-2.001h0l10.559-3.02zm2.829 25.252 1.164 4.347m-4.532-27.162-8.52 2.283c-.448.12-.721.554-.61.97l2.218 8.275c.111.416.564.655 1.013.535l8.52-2.283c.447-.12.72-.554.609-.97l-2.218-8.275c-.11-.415-.564-.655-1.012-.535z" stroke-width="1.25"/>
        </g>
        <path d="M5.043 47.07a.446.446 0 0 0 .752.295l5.727-5.492c.1-.096.12-.25.038-.372a.304.304 0 0 0-.237-.129l-2.737-.141a.511.511 0 0 0-.477.265l-1.463 2.69a.037.037 0 0 1-.047.017.038.038 0 0 1-.023-.044l.753-2.97a.513.513 0 0 0-.17-.52l-2.101-1.761a.304.304 0 0 0-.263-.068.288.288 0 0 0-.223.299l.47 7.93z" fill="#292647"/>
        <path d="m90.991 19.816 6.271 2.662c.334.141.49.526.348.86l-4.616 10.874a.656.656 0 0 1-.86.347l-6.271-2.662a.656.656 0 0 1-.348-.86l4.616-10.874a.656.656 0 0 1 .86-.347zM88.724 30.92l2.643 1.148" stroke="#292647" stroke-width="1.25" stroke-linecap="round" stroke-linejoin="round"/>
    </g>
</svg>
